<?xml version="1.0" encoding="UTF-8"?>
<svg width="22px" height="20px" viewBox="0 0 22 20" version="1.1" xmlns="http://www.w3.org/2000/svg" xmlns:xlink="http://www.w3.org/1999/xlink">
    <title>checkbox-selected</title>
    <defs>
        <path d="M22.6996167,3.7 L11.6996167,14.7 C11.4996167,14.9 11.2996167,15 10.9996167,15 C10.6996167,15 10.4996167,14.9 10.2996167,14.7 L7.29961674,11.7 C6.89961674,11.3 6.89961674,10.7 7.29961674,10.3 C7.69961674,9.9 8.29961674,9.9 8.69961674,10.3 L10.9996167,12.6 L21.2996167,2.3 C21.6996167,1.9 22.2996167,1.9 22.6996167,2.3 C23.0996167,2.7 23.0996167,3.3 22.6996167,3.7 Z M19.9996167,11 C19.3996167,11 18.9996167,11.4 18.9996167,12 L18.9996167,19 C18.9996167,19.6 18.5996167,20 17.9996167,20 L3.99961674,20 C3.39961674,20 2.99961674,19.6 2.99961674,19 L2.99961674,5 C2.99961674,4.4 3.39961674,4 3.99961674,4 L14.9996167,4 C15.5996167,4 15.9996167,3.6 15.9996167,3 C15.9996167,2.4 15.5996167,2 14.9996167,2 L3.99961674,2 C2.29961674,2 0.999616736,3.3 0.999616736,5 L0.999616736,19 C0.999616736,20.7 2.29961674,22 3.99961674,22 L17.9996167,22 C19.6996167,22 20.9996167,20.7 20.9996167,19 L20.9996167,12 C20.9996167,11.4 20.5996167,11 19.9996167,11 Z" id="path-1"></path>
    </defs>
    <g id="Page-1" stroke="none" stroke-width="1" fill="none" fill-rule="evenodd">
        <g id="09---Sign-Up_T1D" transform="translate(-30.000000, -222.000000)">
            <g id="Group-2" transform="translate(29.000000, 190.000000)">
                <g id="Icon-/-check-square" transform="translate(0.000000, 30.000000)">
                    <mask id="mask-2" fill="white">
                        <use xlink:href="#path-1"></use>
                    </mask>
                    <use id="Mask" fill="#0055FF" fill-rule="nonzero" xlink:href="#path-1"></use>
                    <g id="u-/-Color-/-Blue" mask="url(#mask-2)" fill="#0055FF" fill-rule="evenodd">
                        <g transform="translate(-0.000383, 0.000000)" id="Rectangle">
                            <rect x="0" y="0" width="48" height="48"></rect>
                        </g>
                    </g>
                </g>
            </g>
        </g>
    </g>
</svg>